<?xml version="1.0" encoding="UTF-8"?>
<!DOCTYPE svg PUBLIC "-//W3C//DTD SVG 1.1//EN" "http://www.w3.org/Graphics/SVG/1.1/DTD/svg11.dtd">
<!-- Creator: CorelDRAW X7 -->
<svg xmlns="http://www.w3.org/2000/svg" xml:space="preserve" width="134.312mm" height="75.5539mm" version="1.1" style="shape-rendering:geometricPrecision; text-rendering:geometricPrecision; image-rendering:optimizeQuality; fill-rule:evenodd; clip-rule:evenodd"
viewBox="0 0 13431 7555"
 xmlns:xlink="http://www.w3.org/1999/xlink">
 <defs>
  <style type="text/css">
   <![CDATA[
    .fil0 {fill:#F39314}
    .fil1 {fill:#F39314;fill-rule:nonzero}
   ]]>
  </style>
 </defs>
 <g id="Слой_x0020_1">
  <metadata id="CorelCorpID_0Corel-Layer"/>
  <g id="_807277472">
   <polygon class="fil0" points="0,4138 378,4138 378,6319 1541,6319 1541,6697 0,6697 "/>
   <path class="fil0" d="M1790 4865l379 0 0 1832 -379 0 0 -1832zm-46 -727l465 0 0 471 -465 0 0 -471z"/>
   <polygon class="fil0" points="3616,5243 2500,5243 2500,4865 4186,4865 4186,5173 3064,6319 4186,6319 4186,6697 2500,6697 2500,6388 "/>
   <path class="fil0" d="M4593 5243l0 -378 988 0c368,0 552,184 552,552l0 727c0,368 -184,553 -552,553l-581 0c-368,0 -552,-185 -552,-553l0 -6c0,-364 184,-546 552,-546l640 0 0 378 -640 0c-116,0 -175,56 -175,168l0 6c0,116 59,175 175,175l581 0c116,0 175,-59 175,-175l0 -727c0,-116 -59,-174 -175,-174l-988 0z"/>
   <polygon class="fil0" points="7279,5737 7898,5737 7511,4740 6747,6697 6337,6697 7354,4138 7671,4138 8694,6697 8282,6697 8049,6115 7128,6115 "/>
   <polygon class="fil0" points="8898,4138 9276,4138 9276,6697 8898,6697 "/>
   <path class="fil0" d="M11107 6319l0 378 -988 0c-368,0 -553,-185 -553,-553l0 -726c0,-369 185,-553 553,-553l581 0c368,0 553,184 553,553l0 5c0,365 -185,547 -553,547l-639 0 0 -378 639 0c116,0 175,-56 175,-169l0 -5c0,-117 -59,-175 -175,-175l-581 0c-117,0 -174,58 -174,175l0 726c0,116 57,175 174,175l988 0z"/>
   <path class="fil0" d="M11892 6697l-378 0 0 -1279c0,-369 184,-553 553,-553l261 0 0 378 -261 0c-117,0 -175,58 -175,175l0 1279z"/>
   <polygon class="fil0" points="12532,4865 12677,4865 12677,4138 13034,4138 13034,4865 13345,4865 13345,5243 13034,5243 13034,6697 12677,6697 12677,5243 12532,5243 "/>
   <path class="fil0" d="M2003 1510c-217,136 -417,272 -601,406l477 247c169,-124 350,-248 541,-369l-417 -284z"/>
   <path class="fil0" d="M3061 936c-294,137 -567,282 -820,430l393 297c233,-139 479,-272 738,-395l-311 -332z"/>
   <path class="fil0" d="M1228 2680c136,-118 283,-238 441,-360l-499 -231c-181,140 -343,274 -486,398l544 193z"/>
   <path class="fil0" d="M3937 577c-218,77 -426,159 -626,246l287 341c206,-91 420,-176 642,-252 3910,-1350 8021,-44 8905,2502l286 -47c-960,-2766 -5340,-4263 -9494,-2790z"/>
   <path class="fil0" d="M453 2694c-203,187 -354,338 -453,432l613 133c118,-121 253,-253 405,-392l-565 -173z"/>
   <polygon class="fil0" points="6249,4361 5966,4188 9611,1133 "/>
   <polygon class="fil0" points="6558,4065 6249,4361 2998,2298 "/>
   <path class="fil1" d="M140 7347c-5,41 -18,71 -39,91l147 0 0 -199 -96 0 -12 108zm-128 208l0 -112c12,-2 22,-5 29,-10 6,-4 13,-14 18,-29 6,-14 11,-35 14,-62l18 -162 225 0 0 258 29 0 0 117 -68 0 0 -58 -197 0 0 58 -68 0z"/>
   <path class="fil1" d="M465 7413c17,20 41,30 69,30 29,0 53,-10 70,-30 18,-19 27,-44 27,-74 0,-30 -9,-55 -27,-75 -17,-19 -41,-29 -70,-29 -28,0 -52,10 -69,29 -18,20 -27,45 -27,75 0,30 9,55 27,74zm69 90c-47,0 -87,-16 -118,-47 -31,-31 -47,-70 -47,-117 0,-48 16,-87 47,-118 31,-31 71,-46 118,-46 49,0 88,15 119,46 32,31 47,70 47,118 0,48 -15,87 -47,118 -31,30 -70,46 -119,46z"/>
   <path class="fil1" d="M888 7355l-73 0 0 83 73 0c14,0 25,-4 33,-12 8,-7 13,-17 13,-30 0,-12 -5,-22 -13,-30 -8,-7 -19,-11 -33,-11zm-140 -175l231 0 0 59 -164 0 0 57 82 0c33,0 59,9 77,29 19,19 28,43 28,71 0,29 -9,53 -28,72 -18,19 -44,29 -77,29l-149 0 0 -317z"/>
   <path class="fil1" d="M1183 7325c14,0 25,-4 34,-12 9,-7 13,-18 13,-31 0,-13 -4,-23 -13,-31 -9,-8 -20,-11 -34,-11l-71 0 0 85 71 0zm-71 172l-68 0 0 -317 148 0c34,0 60,10 79,29 18,20 28,44 28,73 0,29 -10,53 -29,73 -19,20 -45,29 -78,29l-80 0 0 113z"/>
   <path class="fil1" d="M1421 7413c18,20 41,30 70,30 29,0 52,-10 70,-30 17,-19 26,-44 26,-74 0,-30 -9,-55 -26,-75 -18,-19 -41,-29 -70,-29 -29,0 -52,10 -70,29 -17,20 -26,45 -26,75 0,30 9,55 26,74zm70 90c-48,0 -88,-16 -119,-47 -31,-31 -47,-70 -47,-117 0,-48 16,-87 47,-118 31,-31 71,-46 119,-46 48,0 88,15 119,46 31,31 47,70 47,118 0,48 -16,87 -47,118 -31,30 -71,46 -119,46z"/>
   <path class="fil1" d="M1858 7439c13,0 23,-4 30,-10 8,-7 11,-16 11,-27 0,-10 -3,-19 -11,-26 -7,-8 -17,-11 -30,-11l-87 0 0 74 87 0zm-2 -132c11,0 20,-3 27,-10 7,-6 10,-14 10,-24 0,-10 -3,-19 -10,-25 -7,-7 -16,-10 -27,-10l-85 0 0 69 85 0zm20 190l-172 0 0 -317 167 0c29,0 51,8 67,24 16,15 24,34 24,57 0,19 -5,35 -16,48 -10,13 -23,21 -39,25 17,2 32,11 44,26 11,15 17,32 17,51 0,25 -8,46 -24,62 -16,16 -39,24 -68,24z"/>
   <path class="fil1" d="M2100 7413c17,20 40,30 69,30 29,0 52,-10 70,-30 18,-19 27,-44 27,-74 0,-30 -9,-55 -27,-75 -18,-19 -41,-29 -70,-29 -29,0 -52,10 -69,29 -18,20 -27,45 -27,75 0,30 9,55 27,74zm69 90c-48,0 -87,-16 -118,-47 -32,-31 -47,-70 -47,-117 0,-48 15,-87 47,-118 31,-31 70,-46 118,-46 48,0 88,15 119,46 31,31 47,70 47,118 0,48 -16,87 -47,118 -31,30 -71,46 -119,46z"/>
   <path class="fil1" d="M2347 7503l0 -60c17,0 31,-7 40,-21 9,-14 16,-40 21,-80l18 -162 225 0 0 317 -68 0 0 -257 -96 0 -12 107c-4,32 -10,58 -17,79 -8,21 -17,37 -29,48 -11,11 -23,18 -36,22 -13,5 -28,7 -46,7z"/>
   <path class="fil1" d="M2853 7352l-72 0 0 86 72 0c13,0 24,-4 33,-12 9,-8 13,-18 13,-31 0,-13 -4,-24 -13,-31 -9,-8 -20,-12 -33,-12zm-139 -172l67 0 0 113 81 0c33,0 59,10 78,29 19,20 28,44 28,73 0,29 -9,53 -28,73 -19,19 -45,29 -78,29l-148 0 0 -317z"/>
   <path class="fil1" d="M3039 7180l0 89c0,38 20,57 58,57 23,0 43,-3 61,-10l0 -136 67 0 0 317 -67 0 0 -122c-23,7 -46,11 -69,11 -39,0 -68,-11 -88,-31 -20,-21 -30,-50 -30,-86l0 -89 68 0z"/>
   <polygon class="fil1" points="3512,7497 3288,7497 3288,7180 3512,7180 3512,7239 3355,7239 3355,7306 3509,7306 3509,7366 3355,7366 3355,7438 3512,7438 "/>
   <path class="fil1" d="M3718 7503c-48,0 -88,-16 -120,-46 -32,-31 -48,-70 -48,-118 0,-48 16,-88 48,-118 32,-31 72,-46 120,-46 59,0 104,26 133,77l-58 29c-7,-13 -17,-25 -31,-33 -13,-9 -28,-13 -44,-13 -29,0 -52,10 -71,29 -19,20 -28,45 -28,75 0,30 9,55 28,74 19,20 42,30 71,30 16,0 31,-4 44,-13 14,-9 24,-20 31,-33l58 28c-30,52 -74,78 -133,78z"/>
   <polygon class="fil1" points="4162,7497 4079,7497 3983,7370 3959,7400 3959,7497 3891,7497 3891,7180 3959,7180 3959,7322 4071,7180 4154,7180 4028,7329 "/>
   <polygon class="fil1" points="4258,7497 4193,7497 4193,7180 4261,7180 4261,7385 4408,7180 4477,7180 4477,7497 4409,7497 4409,7285 "/>
   <path class="fil1" d="M4765 7124c-21,27 -49,41 -83,41 -35,0 -63,-14 -84,-41l27 -23c14,20 33,30 57,30 23,0 42,-10 56,-30l27 23zm-160 373l-65 0 0 -317 67 0 0 205 147 -205 69 0 0 317 -67 0 0 -212 -151 212z"/>
   <polygon class="fil1" points="5293,7497 5225,7497 5225,7239 5075,7239 5075,7497 5008,7497 5008,7180 5293,7180 "/>
   <path class="fil1" d="M5435 7413c18,20 41,30 70,30 29,0 52,-10 70,-30 18,-19 26,-44 26,-74 0,-30 -8,-55 -26,-75 -18,-19 -41,-29 -70,-29 -29,0 -52,10 -70,29 -17,20 -26,45 -26,75 0,30 9,55 26,74zm70 90c-48,0 -87,-16 -119,-47 -31,-31 -46,-70 -46,-117 0,-48 15,-87 46,-118 32,-31 71,-46 119,-46 48,0 88,15 119,46 31,31 47,70 47,118 0,48 -16,87 -47,118 -31,30 -71,46 -119,46z"/>
   <polygon class="fil1" points="5783,7497 5718,7497 5718,7180 5786,7180 5786,7385 5932,7180 6002,7180 6002,7497 5934,7497 5934,7285 "/>
   <path class="fil1" d="M6218 7503c-48,0 -88,-16 -120,-46 -33,-31 -49,-70 -49,-118 0,-48 16,-88 49,-118 32,-31 72,-46 120,-46 59,0 103,26 132,77l-57 29c-7,-13 -18,-25 -31,-33 -14,-9 -28,-13 -44,-13 -29,0 -53,10 -71,29 -19,20 -28,45 -28,75 0,30 9,55 28,74 18,20 42,30 71,30 16,0 30,-4 44,-13 13,-9 24,-20 31,-33l57 28c-30,52 -74,78 -132,78z"/>
   <polygon class="fil1" points="6662,7497 6579,7497 6483,7370 6458,7400 6458,7497 6391,7497 6391,7180 6458,7180 6458,7322 6570,7180 6654,7180 6528,7329 "/>
   <path class="fil1" d="M6751 7413c18,20 41,30 70,30 29,0 52,-10 70,-30 17,-19 26,-44 26,-74 0,-30 -9,-55 -26,-75 -18,-19 -41,-29 -70,-29 -29,0 -52,10 -70,29 -17,20 -26,45 -26,75 0,30 9,55 26,74zm70 90c-48,0 -88,-16 -119,-47 -31,-31 -47,-70 -47,-117 0,-48 16,-87 47,-118 31,-31 71,-46 119,-46 48,0 88,15 119,46 31,31 47,70 47,118 0,48 -16,87 -47,118 -31,30 -71,46 -119,46z"/>
   <path class="fil1" d="M7189 7439c12,0 22,-4 29,-10 8,-7 11,-16 11,-27 0,-10 -3,-19 -11,-26 -7,-8 -17,-11 -29,-11l-87 0 0 74 87 0zm-3 -132c12,0 21,-3 27,-10 7,-6 10,-14 10,-24 0,-10 -3,-19 -10,-25 -7,-7 -16,-10 -27,-10l-84 0 0 69 84 0zm20 190l-172 0 0 -317 167 0c29,0 51,8 67,24 16,15 24,34 24,57 0,19 -5,35 -16,48 -10,13 -23,21 -39,25 18,2 32,11 44,26 11,15 17,32 17,51 0,25 -8,46 -24,62 -16,16 -39,24 -68,24z"/>
   <path class="fil1" d="M7430 7413c17,20 40,30 69,30 29,0 52,-10 70,-30 18,-19 27,-44 27,-74 0,-30 -9,-55 -27,-75 -18,-19 -41,-29 -70,-29 -29,0 -52,10 -69,29 -18,20 -27,45 -27,75 0,30 9,55 27,74zm69 90c-48,0 -87,-16 -118,-47 -32,-31 -47,-70 -47,-117 0,-48 15,-87 47,-118 31,-31 70,-46 118,-46 48,0 88,15 119,46 31,31 47,70 47,118 0,48 -16,87 -47,118 -31,30 -71,46 -119,46z"/>
   <polygon class="fil1" points="7809,7361 7695,7361 7695,7309 7809,7309 "/>
   <path class="fil1" d="M8008 7503c-48,0 -88,-16 -120,-46 -32,-31 -48,-70 -48,-118 0,-48 16,-88 48,-118 32,-31 72,-46 120,-46 60,0 104,26 133,77l-58 29c-7,-13 -17,-25 -31,-33 -13,-9 -28,-13 -44,-13 -28,0 -52,10 -71,29 -18,20 -28,45 -28,75 0,30 10,55 28,74 19,20 43,30 71,30 16,0 31,-4 44,-13 14,-9 24,-20 31,-33l58 28c-30,52 -74,78 -133,78z"/>
   <polygon class="fil1" points="8466,7497 8398,7497 8398,7239 8249,7239 8249,7497 8181,7497 8181,7180 8466,7180 "/>
   <path class="fil1" d="M8709 7384l-49 -136 -50 136 99 0zm115 113l-77 0 -19 -54 -136 0 -20 54 -77 0 122 -317 85 0 122 317z"/>
   <path class="fil1" d="M8991 7503c-48,0 -88,-16 -121,-46 -32,-31 -48,-70 -48,-118 0,-48 16,-88 48,-118 33,-31 73,-46 121,-46 59,0 103,26 132,77l-58 29c-7,-13 -17,-25 -30,-33 -14,-9 -28,-13 -44,-13 -29,0 -53,10 -71,29 -19,20 -28,45 -28,75 0,30 9,55 28,74 18,20 42,30 71,30 16,0 30,-4 44,-13 13,-9 23,-20 30,-33l58 28c-30,52 -74,78 -132,78z"/>
   <path class="fil1" d="M9341 7384l-49 -136 -50 136 99 0zm115 113l-77 0 -19 -54 -136 0 -20 54 -77 0 122 -317 85 0 122 317z"/>
   <polygon class="fil1" points="9596,7497 9528,7497 9528,7239 9436,7239 9436,7180 9688,7180 9688,7239 9596,7239 "/>
   <polygon class="fil1" points="9956,7497 9731,7497 9731,7180 9956,7180 9956,7239 9799,7239 9799,7306 9952,7306 9952,7366 9799,7366 9799,7438 9956,7438 "/>
   <path class="fil1" d="M9989 7503l0 -60c18,0 31,-7 40,-21 9,-14 16,-40 21,-80l18 -162 225 0 0 317 -67 0 0 -257 -97 0 -12 107c-4,32 -10,58 -17,79 -8,21 -17,37 -29,48 -11,11 -23,18 -36,22 -13,5 -28,7 -46,7z"/>
   <path class="fil1" d="M10495 7352l-72 0 0 86 72 0c14,0 25,-4 33,-12 9,-8 13,-18 13,-31 0,-13 -4,-24 -13,-31 -8,-8 -19,-12 -33,-12zm-139 -172l67 0 0 113 81 0c33,0 59,10 78,29 19,20 28,44 28,73 0,29 -9,53 -28,73 -19,19 -45,29 -78,29l-148 0 0 -317z"/>
   <polygon class="fil1" points="10937,7497 10869,7497 10869,7364 10720,7364 10720,7497 10652,7497 10652,7180 10720,7180 10720,7305 10869,7305 10869,7180 10937,7180 "/>
   <path class="fil1" d="M11349 7497l-68 0 0 -317 68 0 0 317zm-210 -145l-72 0 0 86 72 0c13,0 24,-4 33,-12 9,-8 13,-18 13,-31 0,-13 -4,-24 -13,-31 -9,-8 -20,-12 -33,-12zm-140 -172l68 0 0 113 81 0c33,0 58,9 77,29 20,20 29,44 29,73 0,29 -9,53 -28,73 -19,19 -45,29 -78,29l-149 0 0 -317z"/>
   <path class="fil1" d="M11636 7124c-20,27 -48,41 -83,41 -34,0 -62,-14 -83,-41l26 -23c14,20 33,30 57,30 24,0 43,-10 57,-30l26 23zm-160 373l-65 0 0 -317 68 0 0 205 147 -205 69 0 0 317 -68 0 0 -212 -151 212z"/>
   <path class="fil1" d="M11960 7413c17,20 40,30 69,30 29,0 52,-10 70,-30 18,-19 27,-44 27,-74 0,-30 -9,-55 -27,-75 -18,-19 -41,-29 -70,-29 -29,0 -52,10 -69,29 -18,20 -27,45 -27,75 0,30 9,55 27,74zm69 90c-47,0 -87,-16 -118,-47 -31,-31 -47,-70 -47,-117 0,-48 16,-87 47,-118 31,-31 71,-46 118,-46 48,0 88,15 119,46 31,31 47,70 47,118 0,48 -16,87 -47,118 -31,30 -71,46 -119,46z"/>
   <polygon class="fil1" points="12372,7497 12304,7497 12304,7239 12212,7239 12212,7180 12464,7180 12464,7239 12372,7239 "/>
   <path class="fil1" d="M12647 7325c14,0 25,-4 33,-12 9,-7 13,-18 13,-31 0,-13 -4,-23 -13,-31 -8,-8 -19,-11 -33,-11l-72 0 0 85 72 0zm-72 172l-67 0 0 -317 148 0c33,0 59,10 78,29 19,20 28,44 28,73 0,29 -9,53 -28,73 -19,20 -45,29 -78,29l-81 0 0 113z"/>
   <path class="fil1" d="M12909 7325l70 0 0 -85 -70 0c-14,0 -26,3 -35,11 -8,8 -13,18 -13,31 0,13 5,24 13,31 9,8 21,12 35,12zm-41 172l-78 0 72 -121c-20,-4 -36,-14 -50,-31 -13,-16 -20,-37 -20,-63 0,-30 10,-54 29,-73 19,-19 45,-29 78,-29l148 0 0 317 -68 0 0 -113 -49 0 -62 113z"/>
   <path class="fil1" d="M13218 7347c-5,41 -17,71 -39,91l148 0 0 -199 -97 0 -12 108zm-127 208l0 -112c12,-2 21,-5 28,-10 7,-4 13,-14 19,-29 5,-14 10,-35 13,-62l18 -162 226 0 0 258 28 0 0 117 -67 0 0 -58 -198 0 0 58 -67 0z"/>
  </g>
 </g>
</svg>
